<?xml version="1.0" encoding="UTF-8"?>
<!DOCTYPE svg PUBLIC "-//W3C//DTD SVG 1.1//EN" "http://www.w3.org/Graphics/SVG/1.1/DTD/svg11.dtd">
<svg xmlns="http://www.w3.org/2000/svg" version="1.1" width="120px" height="70px" style="shape-rendering:geometricPrecision; text-rendering:geometricPrecision; image-rendering:optimizeQuality; fill-rule:evenodd; clip-rule:evenodd" xmlns:xlink="http://www.w3.org/1999/xlink">
<g><path style="opacity:0.928" fill="#4e6e80" d="M 76.5,9.5 C 81.6496,8.53624 85.9829,9.86957 89.5,13.5C 93.3763,9.66385 98.043,8.49718 103.5,10C 104.667,11.1667 105.833,12.3333 107,13.5C 108.454,24.3971 108.954,35.3971 108.5,46.5C 104.833,46.5 101.167,46.5 97.5,46.5C 97.9686,37.6638 97.4686,28.9972 96,20.5C 95.5002,29.1603 95.3336,37.8269 95.5,46.5C 91.5,46.5 87.5,46.5 83.5,46.5C 83.6664,37.8269 83.4998,29.1603 83,20.5C 81.5314,28.9972 81.0314,37.6638 81.5,46.5C 77.5,46.5 73.5,46.5 69.5,46.5C 69.3336,37.4938 69.5002,28.4938 70,19.5C 70.4352,14.9448 72.6018,11.6115 76.5,9.5 Z"/></g>
<g><path style="opacity:0.892" fill="#4e6e80" d="M 25.5,19.5 C 26.4816,22.9619 26.815,26.6286 26.5,30.5C 24.6096,30.2965 23.1096,30.9632 22,32.5C 21.5008,37.1548 21.3342,41.8215 21.5,46.5C 17.8333,46.5 14.1667,46.5 10.5,46.5C 9.92718,38.9653 10.7605,31.632 13,24.5C 14.214,22.9512 15.714,21.7845 17.5,21C 20.3647,20.8171 23.0314,20.3171 25.5,19.5 Z"/></g>
<g><path style="opacity:0.946" fill="#4e6e80" d="M 27.5,20.5 C 31.1667,20.5 34.8333,20.5 38.5,20.5C 38.0506,26.352 38.5506,32.0187 40,37.5C 41.4038,31.9562 41.9038,26.2896 41.5,20.5C 44.8333,20.5 48.1667,20.5 51.5,20.5C 51.0506,26.352 51.5506,32.0187 53,37.5C 54.4038,31.9562 54.9038,26.2896 54.5,20.5C 57.8333,20.5 61.1667,20.5 64.5,20.5C 64.6663,27.5079 64.4996,34.5079 64,41.5C 62.1998,45.6507 59.0331,47.6507 54.5,47.5C 51.403,47.617 48.7363,46.617 46.5,44.5C 37.1768,50.2425 31.0102,47.9092 28,37.5C 27.5006,31.8431 27.3339,26.1764 27.5,20.5 Z"/></g>
<g><path style="opacity:0.74" fill="#000000" d="M 1.5,50.5 C 3.85684,50.3367 6.19018,50.5034 8.5,51C 9.19055,52.0674 9.69055,53.2341 10,54.5C 12.5918,53.0183 14.9251,53.3517 17,55.5C 19.4699,53.5135 22.3033,53.0135 25.5,54C 26.4061,55.6995 26.7394,57.5328 26.5,59.5C 23.1667,59.5 19.8333,59.5 16.5,59.5C 16.719,58.325 16.3857,57.325 15.5,56.5C 14.4937,56.9377 14.4937,57.6043 15.5,58.5C 14.6667,58.8333 13.8333,59.1667 13,59.5C 9.32162,59.1695 5.48829,59.1695 1.5,59.5C 1.5,56.5 1.5,53.5 1.5,50.5 Z"/></g>
<g><path style="opacity:0.766" fill="#000000" d="M 34.5,50.5 C 35.5,50.5 36.5,50.5 37.5,50.5C 37.4914,52.3084 37.9914,53.9751 39,55.5C 41.585,52.8717 44.085,52.8717 46.5,55.5C 43.2027,56.1424 42.8693,57.3091 45.5,59C 42.9369,59.9181 40.7702,59.4181 39,57.5C 38.6121,58.428 37.9454,59.0946 37,59.5C 34.0026,59.4233 31.0026,59.09 28,58.5C 27.3772,53.6556 29.3772,52.3223 34,54.5C 34.49,53.2068 34.6567,51.8734 34.5,50.5 Z"/></g>
<g><path style="opacity:0.746" fill="#000000" d="M 49.5,50.5 C 53.1667,50.5 56.8333,50.5 60.5,50.5C 60.3433,51.8734 60.51,53.2068 61,54.5C 65.6228,52.3223 67.6228,53.6556 67,58.5C 64.4082,59.9817 62.0749,59.6483 60,57.5C 58.6472,58.7042 56.9806,59.3708 55,59.5C 53.5,59.1667 52,58.8333 50.5,58.5C 49.6072,55.9159 49.2739,53.2492 49.5,50.5 Z"/></g>
<g><path style="opacity:0.767" fill="#000000" d="M 72.5,50.5 C 73.5,50.5 74.5,50.5 75.5,50.5C 75.5,51.5 75.5,52.5 75.5,53.5C 76.8734,53.3433 78.2068,53.51 79.5,54C 78.2532,55.4579 78.2532,56.9579 79.5,58.5C 77.2039,58.3242 74.8706,58.6575 72.5,59.5C 72.1667,55.5 71.8333,55.5 71.5,59.5C 70.5,59.5 69.5,59.5 68.5,59.5C 68.5,57.5 68.5,55.5 68.5,53.5C 69.8333,53.5 71.1667,53.5 72.5,53.5C 72.5,52.5 72.5,51.5 72.5,50.5 Z"/></g>
<g><path style="opacity:0.748" fill="#000000" d="M 83.5,50.5 C 86.5719,50.1826 89.5719,50.5159 92.5,51.5C 93,52.5 93.5,53.5 94,54.5C 99.154,52.1752 101.321,53.8419 100.5,59.5C 94.6494,59.0486 88.6494,59.0486 82.5,59.5C 82.5079,56.4552 82.8413,53.4552 83.5,50.5 Z"/></g>
<g><path style="opacity:0.749" fill="#000000" d="M 119.5,53.5 C 119.5,55.5 119.5,57.5 119.5,59.5C 116.921,59.9167 114.754,59.25 113,57.5C 112.161,58.6241 110.994,59.2908 109.5,59.5C 107.169,58.3944 104.836,58.2278 102.5,59C 101.556,56.2809 101.223,53.4475 101.5,50.5C 102.5,50.5 103.5,50.5 104.5,50.5C 104.46,54.4685 106.126,55.4685 109.5,53.5C 110.994,53.7092 112.161,54.3759 113,55.5C 113.494,53.8659 113.66,52.1992 113.5,50.5C 114.5,50.5 115.5,50.5 116.5,50.5C 116.5,51.5 116.5,52.5 116.5,53.5C 117.5,53.5 118.5,53.5 119.5,53.5 Z"/></g>
</svg>
